nColumns=19
nRows=35
DataType=double
version=2
endheader
time	ground_force_1_vx	ground_force_1_vy	ground_force_1_vz	ground_force_1_px	ground_force_1_py	ground_force_1_pz	ground_moment_1_mx	ground_moment_1_my	ground_moment_1_mz	ground_force_2_vx	ground_force_2_vy	ground_force_2_vz	ground_force_2_px	ground_force_2_py	ground_force_2_pz	ground_moment_2_mx	ground_moment_2_my	ground_moment_2_mz
0	-3.504164468269155	682.6629041424899	-2.155867571187344	0.3525902724433088	0.004306017061593091	0.1374661044482658	0.03699817256936469	4.418118607482157	0.01685368010925036	0	0	0	0.8952113342285156	0.002086591646075249	0.2021185622215271	0	0	0
0.001	-3.504164468269155	682.6629041424899	-2.155867571187344	0.3525902724433088	0.004306017061593091	0.1374661044482658	0.03699817256936469	4.418118607482157	0.01685368010925036	0	0	0	0.8952113342285156	0.002086591646075249	0.2021185622215271	0	0	0
0.002	-3.504164468269155	682.6629041424899	-2.155867571187344	0.3525902724433088	0.004306017061593091	0.1374661044482658	0.03699817256936469	4.418118607482157	0.01685368010925036	0	0	0	0.8952113342285156	0.002086591646075249	0.2021185622215271	0	0	0
0.003	-3.504164468269155	682.6629041424899	-2.155867571187344	0.3525902724433088	0.004306017061593091	0.1374661044482658	0.03699817256936469	4.418118607482157	0.01685368010925036	0	0	0	0.8952113342285156	0.002086591646075249	0.2021185622215271	0	0	0
0.004	-3.504164468269155	682.6629041424899	-2.155867571187344	0.3525902724433088	0.004306017061593091	0.1374661044482658	0.03699817256936469	4.418118607482157	0.01685368010925036	0	0	0	0.8952113342285156	0.002086591646075249	0.2021185622215271	0	0	0
0.005	-3.504164468269155	682.6629041424899	-2.155867571187344	0.3525902724433088	0.004306017061593091	0.1374661044482658	0.03699817256936469	4.418118607482157	0.01685368010925036	0	0	0	0.8952113342285156	0.002086591646075249	0.2021185622215271	0	0	0
0.006	-3.504164468269155	682.6629041424899	-2.155867571187344	0.3525902724433088	0.004306017061593091	0.1374661044482658	0.03699817256936469	4.418118607482157	0.01685368010925036	0	0	0	0.8952113342285156	0.002086591646075249	0.2021185622215271	0	0	0
0.007	-3.504164468269155	682.6629041424899	-2.155867571187344	0.3525902724433088	0.004306017061593091	0.1374661044482658	0.03699817256936469	4.418118607482157	0.01685368010925036	0	0	0	0.8952113342285156	0.002086591646075249	0.2021185622215271	0	0	0
0.008	-3.504164468269155	682.6629041424899	-2.155867571187344	0.3525902724433088	0.004306017061593091	0.1374661044482658	0.03699817256936469	4.418118607482157	0.01685368010925036	0	0	0	0.8952113342285156	0.002086591646075249	0.2021185622215271	0	0	0
0.009000000000000001	-3.504164468269155	682.6629041424899	-2.155867571187344	0.3525902724433088	0.004306017061593091	0.1374661044482658	0.03699817256936469	4.418118607482157	0.01685368010925036	0	0	0	0.8952113342285156	0.002086591646075249	0.2021185622215271	0	0	0
0.01	-3.504164468269155	682.6629041424899	-2.155867571187344	0.3525902724433088	0.004306017061593091	0.1374661044482658	0.03699817256936469	4.418118607482157	0.01685368010925036	0	0	0	0.8952113342285156	0.002086591646075249	0.2021185622215271	0	0	0
0.011	-3.504164468269155	682.6629041424899	-2.155867571187344	0.3525902724433088	0.004306017061593091	0.1374661044482658	0.03699817256936469	4.418118607482157	0.01685368010925036	0	0	0	0.8952113342285156	0.002086591646075249	0.2021185622215271	0	0	0
0.012	-3.504164468269155	682.6629041424899	-2.155867571187344	0.3525902724433088	0.004306017061593091	0.1374661044482658	0.03699817256936469	4.418118607482157	0.01685368010925036	0	0	0	0.8952113342285156	0.002086591646075249	0.2021185622215271	0	0	0
0.013	-3.504164468269155	682.6629041424899	-2.155867571187344	0.3525902724433088	0.004306017061593091	0.1374661044482658	0.03699817256936469	4.418118607482157	0.01685368010925036	0	0	0	0.8952113342285156	0.002086591646075249	0.2021185622215271	0	0	0
0.014	-3.504164468269155	682.6629041424899	-2.155867571187344	0.3525902724433088	0.004306017061593091	0.1374661044482658	0.03699817256936469	4.418118607482157	0.01685368010925036	0	0	0	0.8952113342285156	0.002086591646075249	0.2021185622215271	0	0	0
0.015	-3.504164468269155	682.6629041424899	-2.155867571187344	0.3525902724433088	0.004306017061593091	0.1374661044482658	0.03699817256936469	4.418118607482157	0.01685368010925036	0	0	0	0.8952113342285156	0.002086591646075249	0.2021185622215271	0	0	0
0.016	-3.504164468269155	682.6629041424899	-2.155867571187344	0.3525902724433088	0.004306017061593091	0.1374661044482658	0.03699817256936469	4.418118607482157	0.01685368010925036	0	0	0	0.8952113342285156	0.002086591646075249	0.2021185622215271	0	0	0
0.017	-3.504164468269155	682.6629041424899	-2.155867571187344	0.3525902724433088	0.004306017061593091	0.1374661044482658	0.03699817256936469	4.418118607482157	0.01685368010925036	0	0	0	0.8952113342285156	0.002086591646075249	0.2021185622215271	0	0	0
0.018	-3.504164468269155	682.6629041424899	-2.155867571187344	0.3525902724433088	0.004306017061593091	0.1374661044482658	0.03699817256936469	4.418118607482157	0.01685368010925036	0	0	0	0.8952113342285156	0.002086591646075249	0.2021185622215271	0	0	0
0.019	-3.504164468269155	682.6629041424899	-2.155867571187344	0.3525902724433088	0.004306017061593091	0.1374661044482658	0.03699817256936469	4.418118607482157	0.01685368010925036	0	0	0	0.8952113342285156	0.002086591646075249	0.2021185622215271	0	0	0
0.02	-3.504164468269155	682.6629041424899	-2.155867571187344	0.3525902724433088	0.004306017061593091	0.1374661044482658	0.03699817256936469	4.418118607482157	0.01685368010925036	0	0	0	0.8952113342285156	0.002086591646075249	0.2021185622215271	0	0	0
0.021	-3.610920467937884	682.6776675959977	-2.047503656029845	0.3525816521384704	0.004306153090862143	0.1374493687610495	0.03775001885562876	4.507899962522922	0.01719616666791122	0	0	0	0.8952113342285156	0.002086591646075249	0.2021185622215271	0	0	0
0.022	-3.717676467606614	682.6924310495056	-1.939139740872343	0.35257303562308	0.004306289103044996	0.1374326292340907	0.03850186514189282	4.597681317563686	0.01753865322657209	0	0	0	0.8952113342285156	0.002086591646075249	0.2021185622215271	0	0	0
0.023	-3.824432464146174	682.7071945011683	-1.830775348891523	0.3525644229722377	0.004306425053858538	0.1374158973111492	0.03925371551694461	4.687463160865029	0.01788114164778765	0	0	0	0.8952113342285156	0.002086591646075249	0.2021185622215271	0	0	0
0.024	-3.931188463814902	682.721957954676	-1.722411433734023	0.3525558064818807	0.004306561051280353	0.137399161598777	0.04000556180320867	4.777244515905794	0.01822362820644851	0	0	0	0.8952113342285156	0.002086591646075249	0.2021185622215271	0	0	0
0.025	-4.037944463483631	682.7367214081838	-1.614047518576523	0.3525471861520089	0.004306697095310442	0.1373824220969742	0.04075740808947274	4.867025870946559	0.01856611476510937	0	0	0	0.8952113342285156	0.002086591646075249	0.2021185622215271	0	0	0
0.026	-4.148952840360177	682.5862875536251	-1.936720209322481	0.3525374237158005	0.004306914547312773	0.1373468490687506	0.0399677486943585	4.772729082082557	0.01820640330056154	0	0	0	0.8952113342285156	0.002086591646075249	0.2021185622215271	0	0	0
0.027	-4.259962681955533	682.4357926744558	-2.259393126598799	0.3525276612545587	0.00430713201407614	0.1373112722259405	0.03917808521045654	4.678431804957976	0.01784668997345901	0	0	0	0.8952113342285156	0.002086591646075249	0.2021185622215271	0	0	0
0.028	-4.370971061961248	682.2853588217421	-2.582066294168077	0.3525178987682835	0.004307349495600545	0.1372756915685439	0.0383884258153423	4.584135016093973	0.01748697850891118	0	0	0	0.8952113342285156	0.002086591646075249	0.2021185622215271	0	0	0
0.029	-4.481980903556604	682.1348639425728	-2.904739211444396	0.3525081363070418	0.004307566962363912	0.1372401147257338	0.03759876233144034	4.489837738969392	0.01712726518180865	0	0	0	0.8952113342285156	0.002086591646075249	0.2021185622215271	0	0	0
0.03	-4.592989280433149	681.9844300880139	-3.227411902190353	0.3524983738458	0.00430778442912728	0.1372045378829237	0.0368091029363261	4.395540950105389	0.01676755371726082	0	0	0	0.8952113342285156	0.002086591646075249	0.2021185622215271	0	0	0
0.031	-4.264978643399545	682.1794127053353	-2.690778041416234	0.352567971598071	0.004307068836099579	0.1372393424608144	0.0371556481396778	4.436923475374478	0.01692541454105515	0	0	0	0.8952113342285156	0.002086591646075249	0.2021185622215271	0	0	0
0.032	-3.936969471084748	682.3743342980462	-2.154144407172475	0.3526375655358607	0.004306353274919115	0.137274147063861	0.03750218925424178	4.478305512382989	0.01708327350229478	0	0	0	0.8952113342285156	0.002086591646075249	0.2021185622215271	0	0	0
0.033	-3.608958834051145	682.5693169153674	-1.617510546398356	0.3527071670775798	0.004305637664805213	0.1373089478020093	0.03784873445759348	4.519688037652077	0.01724113432608911	0	0	0	0.8952113342285156	0.002086591646075249	0.2021185622215271	0	0	0
0.034	-3.280948708116004	682.7642385001164	-1.080876918443574	0.3527767572008881	0.004304922135471985	0.1373437524302119	0.03819527557215746	4.561070074660589	0.01739899328732873	0	0	0	0.8952113342285156	0.002086591646075249	0.2021185622215271	0	0	0
